<?xml version="1.0" encoding="UTF-8" standalone="no"?>
<svg
   id="visual"
   viewBox="0 0 900 900"
   width="900"
   height="900"
   version="1.1"
   sodipodi:docname="blob-scene-haikei.svg"
   inkscape:version="1.3.2 (091e20e, 2023-11-25, custom)"
   inkscape:export-filename="tebBg_Version.png"
   inkscape:export-xdpi="96"
   inkscape:export-ydpi="96"
   xmlns:inkscape="http://www.inkscape.org/namespaces/inkscape"
   xmlns:sodipodi="http://sodipodi.sourceforge.net/DTD/sodipodi-0.dtd"
   xmlns="http://www.w3.org/2000/svg"
   xmlns:svg="http://www.w3.org/2000/svg">
  <sodipodi:namedview
     id="namedview29"
     pagecolor="#ffffff"
     bordercolor="#000000"
     borderopacity="0.25"
     inkscape:showpageshadow="2"
     inkscape:pageopacity="0.0"
     inkscape:pagecheckerboard="0"
     inkscape:deskcolor="#d1d1d1"
     inkscape:zoom="0.31937656"
     inkscape:cx="-572.99132"
     inkscape:cy="709.19418"
     inkscape:window-width="1920"
     inkscape:window-height="1009"
     inkscape:window-x="-8"
     inkscape:window-y="-8"
     inkscape:window-maximized="1"
     inkscape:current-layer="visual" />
  <rect
     x="0"
     y="0"
     width="900"
     height="900"
     fill="#FE3F47"
     id="rect1" />
  <defs
     id="defs2">
    <linearGradient
       id="grad1_0"
       x1="0%"
       y1="100%"
       x2="100%"
       y2="0%">
      <stop
         offset="30%"
         stop-color="#ff646f"
         stop-opacity="1"
         id="stop1" />
      <stop
         offset="70%"
         stop-color="#ff646f"
         stop-opacity="1"
         id="stop2" />
    </linearGradient>
  </defs>
  <defs
     id="defs4">
    <linearGradient
       id="grad1_1"
       x1="0%"
       y1="100%"
       x2="100%"
       y2="0%">
      <stop
         offset="30%"
         stop-color="#ff646f"
         stop-opacity="1"
         id="stop3" />
      <stop
         offset="70%"
         stop-color="#ff5b65"
         stop-opacity="1"
         id="stop4" />
    </linearGradient>
  </defs>
  <defs
     id="defs6">
    <linearGradient
       id="grad1_2"
       x1="0%"
       y1="100%"
       x2="100%"
       y2="0%">
      <stop
         offset="30%"
         stop-color="#ff525c"
         stop-opacity="1"
         id="stop5" />
      <stop
         offset="70%"
         stop-color="#ff5b65"
         stop-opacity="1"
         id="stop6" />
    </linearGradient>
  </defs>
  <defs
     id="defs8">
    <linearGradient
       id="grad1_3"
       x1="0%"
       y1="100%"
       x2="100%"
       y2="0%">
      <stop
         offset="30%"
         stop-color="#ff525c"
         stop-opacity="1"
         id="stop7" />
      <stop
         offset="70%"
         stop-color="#ff4951"
         stop-opacity="1"
         id="stop8" />
    </linearGradient>
  </defs>
  <defs
     id="defs10">
    <linearGradient
       id="grad1_4"
       x1="0%"
       y1="100%"
       x2="100%"
       y2="0%">
      <stop
         offset="30%"
         stop-color="#fe3f47"
         stop-opacity="1"
         id="stop9" />
      <stop
         offset="70%"
         stop-color="#ff4951"
         stop-opacity="1"
         id="stop10" />
    </linearGradient>
  </defs>
  <defs
     id="defs12">
    <linearGradient
       id="grad2_0"
       x1="0%"
       y1="100%"
       x2="100%"
       y2="0%">
      <stop
         offset="30%"
         stop-color="#ff646f"
         stop-opacity="1"
         id="stop11" />
      <stop
         offset="70%"
         stop-color="#ff646f"
         stop-opacity="1"
         id="stop12" />
    </linearGradient>
  </defs>
  <defs
     id="defs14">
    <linearGradient
       id="grad2_1"
       x1="0%"
       y1="100%"
       x2="100%"
       y2="0%">
      <stop
         offset="30%"
         stop-color="#ff5b65"
         stop-opacity="1"
         id="stop13" />
      <stop
         offset="70%"
         stop-color="#ff646f"
         stop-opacity="1"
         id="stop14" />
    </linearGradient>
  </defs>
  <defs
     id="defs16">
    <linearGradient
       id="grad2_2"
       x1="0%"
       y1="100%"
       x2="100%"
       y2="0%">
      <stop
         offset="30%"
         stop-color="#ff5b65"
         stop-opacity="1"
         id="stop15" />
      <stop
         offset="70%"
         stop-color="#ff525c"
         stop-opacity="1"
         id="stop16" />
    </linearGradient>
  </defs>
  <defs
     id="defs18">
    <linearGradient
       id="grad2_3"
       x1="0%"
       y1="100%"
       x2="100%"
       y2="0%">
      <stop
         offset="30%"
         stop-color="#ff4951"
         stop-opacity="1"
         id="stop17" />
      <stop
         offset="70%"
         stop-color="#ff525c"
         stop-opacity="1"
         id="stop18" />
    </linearGradient>
  </defs>
  <defs
     id="defs20">
    <linearGradient
       id="grad2_4"
       x1="0%"
       y1="100%"
       x2="100%"
       y2="0%">
      <stop
         offset="30%"
         stop-color="#ff4951"
         stop-opacity="1"
         id="stop19" />
      <stop
         offset="70%"
         stop-color="#fe3f47"
         stop-opacity="1"
         id="stop20" />
    </linearGradient>
  </defs>
  <g
     transform="translate(900,900)"
     id="g24"
     inkscape:highlight-color="#8f5bf9">
    <path
       d="m -445.5,0 c 9.1,-24.1 18.3,-48.2 19.1,-75.2 0.8,-27 -6.7,-56.9 7.8,-77.2 14.5,-20.2 51,-30.7 70.5,-48.6 19.4,-17.9 21.8,-43.1 32.5,-63.8 10.7,-20.7 29.6,-36.9 47.6,-54.6 17.9,-17.7 34.8,-37 57,-46.1 22.2,-9.1 49.9,-8 73.8,-11.3 24,-3.3 44.4,-10.9 66.7,-23 22.3,-12.2 46.4,-28.9 70.5,-45.7 V 0 Z"
       fill="#fe444c"
       id="path20"
       style="fill:#00608c;fill-opacity:1" />
    <path
       d="m -356.4,0 c 7.3,-19.3 14.6,-38.5 15.3,-60.2 0.6,-21.6 -5.4,-45.5 6.2,-61.7 11.6,-16.2 40.8,-24.6 56.4,-38.9 15.5,-14.3 17.5,-34.5 26,-51.1 8.6,-16.5 23.7,-29.5 38.1,-43.7 14.3,-14.1 27.8,-29.5 45.6,-36.8 17.8,-7.2 39.9,-6.4 59.1,-9.1 19.2,-2.6 35.5,-8.6 53.3,-18.4 17.8,-9.7 37.1,-23.1 56.4,-36.5 V 0 Z"
       fill="#ff4e57"
       id="path21"
       style="fill:#0076cb;fill-opacity:1" />
    <path
       d="m -267.3,0 c 5.5,-14.5 11,-28.9 11.4,-45.1 0.5,-16.2 -4,-34.2 4.7,-46.3 8.7,-12.2 30.6,-18.5 42.3,-29.2 11.7,-10.7 13.1,-25.9 19.5,-38.3 6.4,-12.4 17.8,-22.1 28.6,-32.8 10.7,-10.6 20.9,-22.1 34.2,-27.6 13.3,-5.4 29.9,-4.8 44.3,-6.8 14.4,-2 26.6,-6.5 40,-13.8 13.4,-7.3 27.8,-17.3 42.3,-27.4 V 0 Z"
       fill="#ff5761"
       id="path22"
       style="fill:#0083e2;fill-opacity:1" />
    <path
       d="m -178.2,0 c 3.7,-9.6 7.3,-19.3 7.6,-30.1 0.4,-10.8 -2.6,-22.8 3.2,-30.8 5.8,-8.1 20.4,-12.3 28.1,-19.5 7.8,-7.2 8.8,-17.2 13.1,-25.5 4.2,-8.3 11.8,-14.8 19,-21.9 7.2,-7.1 13.9,-14.7 22.8,-18.4 8.9,-3.6 19.9,-3.2 29.5,-4.5 9.6,-1.3 17.8,-4.4 26.7,-9.2 8.9,-4.9 18.6,-11.6 28.2,-18.3 V 0 Z"
       fill="#ff606a"
       id="path23"
       style="fill:#019fe0;fill-opacity:1" />
    <path
       d="m -89.1,0 c 1.8,-4.8 3.7,-9.6 3.8,-15 0.2,-5.4 -1.3,-11.4 1.6,-15.5 2.9,-4 10.2,-6.1 14.1,-9.7 3.9,-3.6 4.3,-8.6 6.5,-12.8 2.1,-4.1 5.9,-7.3 9.5,-10.9 3.6,-3.5 7,-7.4 11.4,-9.2 4.4,-1.8 10,-1.6 14.8,-2.3 4.8,-0.6 8.8,-2.1 13.3,-4.6 4.5,-2.4 9.3,-5.7 14.1,-9.1 V 0 Z"
       fill="#ff646f"
       id="path24"
       style="fill:#01aeff;fill-opacity:1" />
  </g>
  <g
     transform="translate(0, 0)"
     id="g29">
    <path
       d="M445.5 0C428.7 23.2 411.8 46.3 407.7 71.9C403.6 97.5 412.2 125.5 404.1 147.1C396 168.7 371.2 183.9 360.3 208C349.3 232.1 352.2 265.2 336.3 282.2C320.4 299.2 285.9 300.3 263.5 314.1C241.2 327.9 231.2 354.5 212.5 368.1C193.8 381.6 166.6 382.1 143.3 393.7C120 405.4 100.6 428.2 77.4 438.7C54.1 449.2 27.1 447.3 0 445.5L0 0Z"
       fill="#fe444c"
       id="path25" />
    <path
       d="M356.4 0C342.9 18.5 329.5 37.1 326.2 57.5C322.9 78 329.7 100.4 323.3 117.7C316.8 134.9 297 147.1 288.2 166.4C279.4 185.7 281.7 212.1 269 225.7C256.3 239.4 228.7 240.2 210.8 251.3C193 262.3 184.9 283.6 170 294.4C155.1 305.3 133.3 305.7 114.6 315C96 324.3 80.5 342.6 61.9 351C43.3 359.4 21.6 357.9 0 356.4L0 0Z"
       fill="#ff4e57"
       id="path26" />
    <path
       d="M267.3 0C257.2 13.9 247.1 27.8 244.6 43.1C242.2 58.5 247.3 75.3 242.4 88.2C237.6 101.2 222.7 110.3 216.2 124.8C209.6 139.3 211.3 159.1 201.8 169.3C192.3 179.5 171.5 180.2 158.1 188.4C144.7 196.7 138.7 212.7 127.5 220.8C116.3 229 100 229.2 86 236.2C72 243.2 60.4 256.9 46.4 263.2C32.5 269.5 16.2 268.4 0 267.3L0 0Z"
       fill="#ff5761"
       id="path27" />
    <path
       d="M178.2 0C171.5 9.3 164.7 18.5 163.1 28.8C161.4 39 164.9 50.2 161.6 58.8C158.4 67.5 148.5 73.6 144.1 83.2C139.7 92.8 140.9 106.1 134.5 112.9C128.2 119.7 114.3 120.1 105.4 125.6C96.5 131.2 92.5 141.8 85 147.2C77.5 152.6 66.6 152.8 57.3 157.5C48 162.2 40.2 171.3 30.9 175.5C21.6 179.7 10.8 178.9 0 178.2L0 0Z"
       fill="#ff606a"
       id="path28" />
    <path
       d="M89.1 0C85.7 4.6 82.4 9.3 81.5 14.4C80.7 19.5 82.4 25.1 80.8 29.4C79.2 33.7 74.2 36.8 72.1 41.6C69.9 46.4 70.4 53 67.3 56.4C64.1 59.8 57.2 60.1 52.7 62.8C48.2 65.6 46.2 70.9 42.5 73.6C38.8 76.3 33.3 76.4 28.7 78.7C24 81.1 20.1 85.6 15.5 87.7C10.8 89.8 5.4 89.5 0 89.1L0 0Z"
       fill="#ff646f"
       id="path29" />
  </g>
</svg>
