<?xml version="1.0" encoding="UTF-8" standalone="no"?>
<svg
   version="1.0"
   width="32pt"
   height="32.499996pt"
   viewBox="0 0 32 32.499996"
   preserveAspectRatio="xMidYMid"
   id="svg1"
   sodipodi:docname="cropped-teb_favicon-32x32.svg"
   xmlns:inkscape="http://www.inkscape.org/namespaces/inkscape"
   xmlns:sodipodi="http://sodipodi.sourceforge.net/DTD/sodipodi-0.dtd"
   xmlns="http://www.w3.org/2000/svg"
   xmlns:svg="http://www.w3.org/2000/svg">
  <defs
     id="defs1" />
  <sodipodi:namedview
     id="namedview1"
     pagecolor="#505050"
     bordercolor="#eeeeee"
     borderopacity="1"
     inkscape:showpageshadow="0"
     inkscape:pageopacity="0"
     inkscape:pagecheckerboard="0"
     inkscape:deskcolor="#505050"
     inkscape:document-units="pt" />
  <g
     transform="matrix(0.1,0,0,-0.1,0,32)"
     fill="#000000"
     stroke="none"
     id="g1"
     style="fill:#ffffff">
    <path
       d="m 0,237 v -82 l 80,-80 80,-80 80,80 80,80 v 82 83 h -80 c -64,0 -80,-3 -80,-15 0,-12 13,-15 60,-15 h 60 V 235 180 H 222 164 L 95,250 C 57,289 20,320 13,320 3,320 0,298 0,237 Z m 198,-87 c 29,0 52,-4 52,-8 0,-4 -20,-28 -45,-52 L 160,46 100,105 C 44,160 40,168 40,209 v 45 l 53,-52 c 50,-49 55,-52 105,-52 z"
       id="path1"
       style="fill:#ffffff" />
  </g>
</svg>
