<?xml version="1.0" encoding="UTF-8" standalone="no"?>
<svg
   version="1.1"
   id="Layer_1"
   x="0px"
   y="0px"
   width="100%"
   viewBox="0 0 270 111"
   enable-background="new 0 0 270 111"
   xml:space="preserve"
   sodipodi:docname="file.svg"
   inkscape:version="1.3.2 (091e20e, 2023-11-25, custom)"
   xmlns:inkscape="http://www.inkscape.org/namespaces/inkscape"
   xmlns:sodipodi="http://sodipodi.sourceforge.net/DTD/sodipodi-0.dtd"
   xmlns="http://www.w3.org/2000/svg"
   xmlns:svg="http://www.w3.org/2000/svg"><defs
   id="defs16" /><sodipodi:namedview
   id="namedview16"
   pagecolor="#505050"
   bordercolor="#eeeeee"
   borderopacity="1"
   inkscape:showpageshadow="0"
   inkscape:pageopacity="0"
   inkscape:pagecheckerboard="0"
   inkscape:deskcolor="#505050"
   inkscape:zoom="1.4037037"
   inkscape:cx="165.27704"
   inkscape:cy="107.21636"
   inkscape:window-width="1920"
   inkscape:window-height="1009"
   inkscape:window-x="-8"
   inkscape:window-y="-8"
   inkscape:window-maximized="1"
   inkscape:current-layer="Layer_1" />

<path
   fill="#ffffff"
   opacity="1"
   stroke="none"
   d="m 160.18788,1 c 0.6874,25.649928 0.5561,51.301116 0.81114,76.948594 0.0447,4.49761 -1.44708,7.423797 -4.58307,10.476058 -22.69524,22.089168 -45.22192,44.345868 -67.780229,66.570848 -1.708597,1.68335 -3.249501,3.53128 -4.449788,5.70374 -1.618576,0.40101 -3.655724,0.40101 -5.88544,0 C 53.498131,135.92009 28.897789,111.53272 4.2321076,87.209401 3.5066259,86.493984 2.0928546,86.453505 1,86.098333 1,57.732132 1,29.365925 1,1 6.5090865,1 11.852189,1 17.479554,1.4010194 39.589602,23.455796 61.405585,45.119149 83.274634,66.730565 c 0.940344,0.929268 2.366072,1.957359 3.572849,1.965942 17.733097,0.126148 35.467407,0.08682 53.066667,0.08682 0,-16.805838 0,-32.771404 0,-49.29177 -20.57508,0 -40.729171,0 -61.176628,0 0,-6.538388 0,-12.5149691 0,-18.4915506 26.920978,0 53.841968,0 81.450358,0 M 101.47208,112.06054 c 7.50794,-7.35754 15.01588,-14.715073 23.54927,-23.077518 -15.85642,0 -30.179123,0.227193 -44.483436,-0.176309 -3.166106,-0.08931 -7.007926,-1.65658 -9.278504,-3.82138 C 56.00749,70.443928 41.106734,55.546657 26.057122,40.7993 c -1.52772,-1.497041 -3.287757,-2.764817 -5.989202,-5.011628 0,12.833008 -0.05325,23.862269 0.06201,34.889826 0.01583,1.514631 0.405123,3.472392 1.403283,4.464107 19.36279,19.237819 38.842026,38.362285 58.811408,58.015985 7.098206,-7.09187 13.746149,-13.73388 21.127459,-21.09705 z"
   id="path2"
   style="stroke-width:1.45449" />














</svg>
