<?xml version="1.0" encoding="UTF-8" standalone="no"?>
<svg
   version="1.1"
   id="Layer_1"
   x="0px"
   y="0px"
   width="159.99998"
   viewBox="0 0 159.99998 160.00002"
   enable-background="new 0 0 270 111"
   xml:space="preserve"
   sodipodi:docname="teblarge.svg"
   inkscape:version="1.3.2 (091e20e, 2023-11-25, custom)"
   inkscape:export-filename="teblarge.svg"
   inkscape:export-xdpi="72"
   inkscape:export-ydpi="72"
   height="160.00002"
   xmlns:inkscape="http://www.inkscape.org/namespaces/inkscape"
   xmlns:sodipodi="http://sodipodi.sourceforge.net/DTD/sodipodi-0.dtd"
   xmlns="http://www.w3.org/2000/svg"
   xmlns:svg="http://www.w3.org/2000/svg"><defs
   id="defs16" /><sodipodi:namedview
   id="namedview16"
   pagecolor="#505050"
   bordercolor="#eeeeee"
   borderopacity="1"
   inkscape:showpageshadow="0"
   inkscape:pageopacity="0"
   inkscape:pagecheckerboard="0"
   inkscape:deskcolor="#505050"
   inkscape:zoom="1.4037037"
   inkscape:cx="165.27704"
   inkscape:cy="107.21636"
   inkscape:window-width="1920"
   inkscape:window-height="1009"
   inkscape:window-x="-8"
   inkscape:window-y="-8"
   inkscape:window-maximized="1"
   inkscape:current-layer="Layer_1" />

<path
   fill="#ffffff"
   opacity="1"
   stroke="none"
   d="M 159.18788,1.0009485e-5 C 159.87528,25.649938 159.74398,51.301122 159.99902,76.948602 c 0.0447,4.49761 -1.44708,7.4238 -4.58307,10.47606 -22.69524,22.089168 -45.22192,44.345868 -67.780232,66.570848 -1.7086,1.68335 -3.2495,3.53128 -4.449791,5.70374 -1.61857,0.40101 -3.65572,0.40101 -5.88544,0 -24.80236,-24.77915 -49.4027,-49.16652 -74.0683766,-73.489838 -0.72548,-0.71542 -2.13926,-0.7559 -3.23210996982423,-1.11107 0,-28.3662 0,-56.732407 0,-85.098331990515 C 5.5090904,1.0009485e-5 10.85219,1.0009485e-5 16.47955,0.40103001 38.589597,22.455806 60.405587,44.119162 82.274627,65.730572 c 0.94035,0.92927 2.366081,1.95736 3.572851,1.96595 17.733102,0.12614 35.467412,0.0868 53.066672,0.0868 0,-16.80584 0,-32.771409 0,-49.291775 -20.57508,0 -40.729172,0 -61.176633,0 0,-6.538388 0,-12.5149666 0,-18.491547 26.920983,0 53.841973,0 81.450363,0 m -58.7158,111.06053 c 7.50794,-7.35754 15.01588,-14.715071 23.54927,-23.077518 -15.85642,0 -30.179122,0.22719 -44.483443,-0.17631 -3.1661,-0.0893 -7.00792,-1.65658 -9.2785,-3.82138 -15.25192,-14.5414 -30.15268,-29.43867 -45.20229,-44.18603 -1.52772,-1.49704 -3.28775,-2.764819 -5.9892,-5.01163 0,12.83301 -0.0532,23.86227 0.062,34.88983 0.0158,1.51463 0.40512,3.47239 1.40328,4.4641 19.36279,19.237817 38.84203,38.362288 58.81141,58.015988 7.098211,-7.09187 13.746151,-13.73388 21.127463,-21.09705 z"
   id="path2"
   style="fill:#ffffff;stroke-width:1.45449" />














</svg>
