<?xml version="1.0" encoding="UTF-8" standalone="no"?>
<svg
   version="1.1"
   id="Layer_1"
   x="0px"
   y="0px"
   width="43200"
   viewBox="0 0 43200 17760"
   enable-background="new 0 0 270 111"
   xml:space="preserve"
   sodipodi:docname="file.svg"
   inkscape:version="1.3.2 (091e20e, 2023-11-25, custom)"
   inkscape:export-filename="teblarge.svg"
   inkscape:export-xdpi="72"
   inkscape:export-ydpi="72"
   height="17760"
   xmlns:inkscape="http://www.inkscape.org/namespaces/inkscape"
   xmlns:sodipodi="http://sodipodi.sourceforge.net/DTD/sodipodi-0.dtd"
   xmlns="http://www.w3.org/2000/svg"
   xmlns:svg="http://www.w3.org/2000/svg"><defs
   id="defs16" /><sodipodi:namedview
   id="namedview16"
   pagecolor="#505050"
   bordercolor="#eeeeee"
   borderopacity="1"
   inkscape:showpageshadow="0"
   inkscape:pageopacity="0"
   inkscape:pagecheckerboard="0"
   inkscape:deskcolor="#505050"
   inkscape:zoom="1.4037037"
   inkscape:cx="165.27704"
   inkscape:cy="107.21636"
   inkscape:window-width="1920"
   inkscape:window-height="1009"
   inkscape:window-x="-8"
   inkscape:window-y="-8"
   inkscape:window-maximized="1"
   inkscape:current-layer="Layer_1" />

<path
   fill="#ffffff"
   opacity="1"
   stroke="none"
   d="m -109.81212,-110 c 0.6874,25.649928 0.5561,51.301116 0.81114,76.948594 0.0447,4.49761 -1.44708,7.423797 -4.58307,10.476058 -22.69524,22.089168 -45.22192,44.345868 -67.78023,66.570848 -1.7086,1.68335 -3.2495,3.53128 -4.44979,5.70374 -1.61857,0.40101 -3.65572,0.40101 -5.88544,0 -24.80236,-24.77915 -49.4027,-49.16652 -74.06838,-73.489839 -0.72548,-0.715417 -2.13926,-0.755896 -3.23211,-1.111068 0,-28.366201 0,-56.732408 0,-85.098333 5.50909,0 10.85219,0 16.47955,0.40102 22.11005,22.054776 43.92604,43.718129 65.79508,65.329545 0.94035,0.929268 2.36608,1.957359 3.57285,1.965942 17.7331,0.126148 35.46741,0.08682 53.06667,0.08682 0,-16.805838 0,-32.771404 0,-49.29177 -20.57508,0 -40.72917,0 -61.17663,0 0,-6.538388 0,-12.514967 0,-18.491547 26.92098,0 53.84197,0 81.45036,0 m -58.7158,111.06053 c 7.50794,-7.35754 15.01588,-14.715073 23.54927,-23.077518 -15.85642,0 -30.17912,0.227193 -44.48344,-0.176309 -3.1661,-0.08931 -7.00792,-1.65658 -9.2785,-3.82138 -15.25192,-14.541405 -30.15268,-29.438676 -45.20229,-44.186033 -1.52772,-1.497041 -3.28775,-2.764817 -5.9892,-5.011628 0,12.833008 -0.0532,23.862269 0.062,34.889826 0.0158,1.514631 0.40512,3.472392 1.40328,4.464107 19.36279,19.237819 38.84203,38.362285 58.81141,58.015985 7.09821,-7.09187 13.74615,-13.73388 21.12746,-21.09705 z"
   id="path2"
   style="fill:#ffffff;stroke-width:1.45449" />














</svg>
